<svg viewBox="0 0 24 24" fill="none" xmlns="http://www.w3.org/2000/svg">
<g clip-path="url(#clip0_2124_568)">
<path opacity="0.985" fill-rule="evenodd" clip-rule="evenodd" d="M1.08008 0.504028C8.34406 0.504028 15.6081 0.504028 22.8721 0.504028C22.8721 1.72003 22.8721 2.93603 22.8721 4.15203C15.6081 4.15203 8.34406 4.15203 1.08008 4.15203C1.08008 2.93603 1.08008 1.72003 1.08008 0.504028ZM3.62408 2.32803C3.91208 2.32803 4.20008 2.32803 4.48808 2.32803C4.48808 2.55203 4.48808 2.77603 4.48808 3.00003C4.20008 3.00003 3.91208 3.00003 3.62408 3.00003C3.62408 2.77603 3.62408 2.55203 3.62408 2.32803ZM5.83208 2.32803C6.12008 2.32803 6.40808 2.32803 6.69608 2.32803C6.69608 2.55203 6.69608 2.77603 6.69608 3.00003C6.40808 3.00003 6.12008 3.00003 5.83208 3.00003C5.83208 2.77603 5.83208 2.55203 5.83208 2.32803ZM8.04008 2.32803C8.32808 2.32803 8.61608 2.32803 8.90408 2.32803C8.90408 2.55203 8.90408 2.77603 8.90408 3.00003C8.61608 3.00003 8.32808 3.00003 8.04008 3.00003C8.04008 2.77603 8.04008 2.55203 8.04008 2.32803ZM14.9521 2.32803C16.3761 2.32803 17.8001 2.32803 19.2241 2.32803C19.2241 2.55203 19.2241 2.77603 19.2241 3.00003C17.8001 3.00003 16.3761 3.00003 14.9521 3.00003C14.9521 2.77603 14.9521 2.55203 14.9521 2.32803Z" fill="black"/>
<path opacity="0.977" fill-rule="evenodd" clip-rule="evenodd" d="M1.08008 4.82397C8.34406 4.82397 15.6081 4.82397 22.8721 4.82397C22.8721 11.032 22.8721 17.24 22.8721 23.448C15.6081 23.448 8.34406 23.448 1.08008 23.448C1.08008 17.24 1.08008 11.032 1.08008 4.82397ZM2.66408 5.63997C8.87206 5.63997 15.0801 5.63997 21.2881 5.63997C21.2961 9.89599 21.2881 14.152 21.2641 18.408C20.1027 19.5853 18.9267 20.7453 17.7361 21.888C12.7121 21.912 7.68809 21.92 2.66408 21.912C2.66408 16.488 2.66408 11.064 2.66408 5.63997ZM18.9361 8.13597C19.1024 8.27815 19.2623 8.43017 19.4161 8.59197C19.094 8.89802 18.7899 9.21804 18.5041 9.55197C18.7579 9.85389 19.0299 10.1419 19.3201 10.416C19.1681 10.568 19.0161 10.72 18.8641 10.872C18.4241 10.432 17.9841 9.99199 17.5441 9.55197C18.0178 9.08628 18.4818 8.61429 18.9361 8.13597ZM4.96808 8.18397C5.4679 8.61161 5.9479 9.06761 6.40808 9.55197C5.96806 9.99199 5.52809 10.432 5.08808 10.872C4.93606 10.72 4.78408 10.568 4.63208 10.416C4.92224 10.1419 5.19425 9.85389 5.44808 9.55197C5.16953 9.23335 4.88153 8.92135 4.58408 8.61597C4.71315 8.47101 4.84117 8.32701 4.96808 8.18397ZM11.9281 8.61597C13.6143 9.39957 15.2863 10.2156 16.9441 11.064C16.9996 12.0678 17.0236 13.0758 17.0161 14.088C17.0236 15.1001 16.9996 16.1081 16.9441 17.112C15.2816 17.9472 13.6097 18.7632 11.9281 19.56C10.2784 18.7632 8.63845 17.9472 7.00808 17.112C6.95259 16.1081 6.92859 15.1001 6.93608 14.088C6.92859 13.0758 6.95259 12.0678 7.00808 11.064C8.65433 10.2518 10.2943 9.43581 11.9281 8.61597Z" fill="black"/>
<path opacity="0.994" fill-rule="evenodd" clip-rule="evenodd" d="M3.33594 6.31201C9.09594 6.31201 14.8559 6.31201 20.6159 6.31201C20.6159 10.184 20.6159 14.056 20.6159 17.928C19.496 17.928 18.3759 17.928 17.2559 17.928C17.2559 19.032 17.2559 20.136 17.2559 21.24C12.6159 21.24 7.97595 21.24 3.33594 21.24C3.33594 16.264 3.33594 11.288 3.33594 6.31201ZM18.9359 8.13601C18.4817 8.61433 18.0176 9.08632 17.5439 9.55201C17.984 9.99203 18.4239 10.432 18.8639 10.872C19.016 10.72 19.1679 10.568 19.3199 10.416C19.0298 10.1419 18.7578 9.85393 18.5039 9.55201C18.7898 9.21808 19.0938 8.89806 19.4159 8.59201C19.2622 8.4302 19.1022 8.27819 18.9359 8.13601ZM4.96794 8.18401C4.84103 8.32705 4.71301 8.47105 4.58394 8.61601C4.88139 8.92139 5.16939 9.23339 5.44794 9.55201C5.19411 9.85393 4.9221 10.1419 4.63194 10.416C4.78394 10.568 4.93592 10.72 5.08794 10.872C5.52795 10.432 5.96792 9.99203 6.40794 9.55201C5.94776 9.06764 5.46776 8.61164 4.96794 8.18401ZM11.9279 8.61601C10.2942 9.43585 8.65419 10.2519 7.00794 11.064C6.95245 12.0678 6.92845 13.0758 6.93594 14.088C6.92845 15.1002 6.95245 16.1082 7.00794 17.112C8.63831 17.9472 10.2783 18.7632 11.9279 19.56C13.6095 18.7632 15.2815 17.9472 16.9439 17.112C16.9994 16.1082 17.0234 15.1002 17.0159 14.088C17.0234 13.0758 16.9994 12.0678 16.9439 11.064C15.2862 10.2156 13.6142 9.39961 11.9279 8.61601Z" fill="black"/>
<path opacity="0.97" fill-rule="evenodd" clip-rule="evenodd" d="M11.928 9.33606C12.311 9.5115 12.695 9.68752 13.08 9.86406C13.144 9.89608 13.144 9.92804 13.08 9.96006C11.7899 10.6131 10.4939 11.2531 9.19204 11.8801C8.8005 11.6923 8.4165 11.4923 8.04004 11.2801C9.34046 10.6299 10.6365 9.98185 11.928 9.33606Z" fill="white"/>
<path opacity="0.98" fill-rule="evenodd" clip-rule="evenodd" d="M13.8481 10.296C14.5461 10.597 15.2342 10.925 15.9121 11.28C14.6072 11.9405 13.2952 12.5885 11.9761 13.224C11.3069 12.9214 10.6509 12.5934 10.0081 12.24C11.285 11.5776 12.565 10.9296 13.8481 10.296Z" fill="white"/>
<path opacity="0.987" fill-rule="evenodd" clip-rule="evenodd" d="M16.296 11.832C16.3599 13.4562 16.3599 15.0882 16.296 16.728C14.9782 17.3749 13.6582 18.015 12.336 18.648C12.304 17.032 12.304 15.416 12.336 13.8C13.6626 13.1487 14.9826 12.4927 16.296 11.832Z" fill="white"/>
<path opacity="0.989" fill-rule="evenodd" clip-rule="evenodd" d="M7.60804 11.832C8.94499 12.4805 10.281 13.1365 11.616 13.8C11.6481 15.432 11.6481 17.064 11.616 18.696C10.3057 18.0209 8.98569 17.3648 7.65604 16.728C7.60804 15.0964 7.59206 13.4644 7.60804 11.832Z" fill="white"/>
<path opacity="0.962" fill-rule="evenodd" clip-rule="evenodd" d="M17.9281 18.6C18.6488 18.584 19.3688 18.6 20.0881 18.648C19.4146 19.3695 18.7106 20.0575 17.9761 20.712C17.9282 20.0087 17.9121 19.3047 17.9281 18.6Z" fill="black"/>
</g>
<defs>
<clipPath id="clip0_2124_568">
<rect width="24" height="24" fill="white"/>
</clipPath>
</defs>
</svg>
