<svg width="128" height="128" viewBox="0 0 128 128" fill="none" xmlns="http://www.w3.org/2000/svg">
<g clip-path="url(#clip0_2266_408)">
<path d="M90 67.089V61.9994C90 61.7832 89.9167 61.594 89.8004 61.4302C91.4879 59.3898 98.095 50.515 98.095 36.563C98.095 17.2361 76.6177 11.2329 68.7948 11.2329C60.9718 11.2329 39.4945 17.2358 39.4945 36.563C39.4945 51.3012 47.0136 60.5364 48.052 61.7417C48.0291 61.8263 48 61.9084 48 61.9996V67.4672C34.3552 69.9793 24.3328 82.4784 25.4474 96.8581L26.9441 116.162C27.0245 117.199 27.8899 118 28.9303 118H88.2284C99.1479 118 108 109.137 108 98.2047V86.7945C108 76.4608 100.089 67.987 90.0002 67.0889L90 67.089ZM106 89.8549V98.204C106 108.016 98.028 115.999 88.2283 115.999L58.9995 116.003V102.099C58.9995 101.492 59.4932 100.999 60.0994 100.999H83.276C84.4976 100.999 85.5968 100.214 86.076 98.9998C86.858 97.0155 90.4255 97.1685 90.4742 97.1727C91.0163 97.1981 91.4988 96.7897 91.5342 96.2381C91.5692 95.6872 91.1513 95.2118 90.6001 95.1764C90.3976 95.1639 85.5459 94.8914 84.2155 98.2652C84.076 98.6202 83.7556 98.9989 83.276 98.9989H60.0994C58.3903 98.9989 56.9995 100.39 56.9995 102.099V102.711L50.0054 103.951C45.9728 104.666 42.4974 106.981 40.2716 110.242L39.1145 101.191C38.624 97.1632 38.6032 93.262 39.052 89.5939C40.4758 77.9577 45.017 75.9128 45.1291 75.8659C45.6383 75.6705 45.8991 75.1022 45.7116 74.5884C45.522 74.0709 44.9478 73.8034 44.4295 73.9917C44.1953 74.0775 38.6716 76.2367 37.0666 89.3517C36.5982 93.1801 36.6195 97.2442 37.1299 101.439L38.6536 113.357C38.4257 113.957 38.2282 114.573 38.077 115.208C38.0124 115.48 38.0136 115.747 38.0453 116.005L28.9378 116.007L27.4412 96.7031C26.8803 89.4706 29.2836 82.557 34.2082 77.2354C39.1232 71.9237 45.8125 68.9987 53.0434 68.9987H88.2285C94.2993 68.9987 99.6642 72.0666 102.871 76.7316C100.631 77.8853 99.0981 80.2166 99.0981 82.9087C99.0985 86.7299 102.184 89.8287 105.999 89.8545L106 89.8549ZM40.0736 115.898C40.0203 115.83 40.0036 115.754 40.0232 115.67C40.1924 114.959 40.4249 114.275 40.7032 113.617C42.3924 109.627 45.9924 106.694 50.3548 105.92L56.9998 104.742V115.999H40.283C40.1972 115.999 40.1268 115.965 40.0739 115.897L40.0736 115.898ZM55.0837 23.009C59.6862 22.0873 64.3574 21.6265 69.0283 21.6265C73.8729 21.6265 78.7166 22.1223 83.4837 23.1135C90.4562 24.5636 95.4539 30.7077 95.4539 37.8293V37.9989C95.4539 45.3468 90.1409 51.6181 82.8928 52.8255C78.3066 53.5893 73.6727 53.9713 69.0389 53.9713C64.5727 53.9713 60.1065 53.6163 55.6821 52.9067L54.7838 52.7626C47.4951 51.5934 42.1342 45.3038 42.1342 37.922C42.1342 30.7587 47.1892 24.5908 54.2131 23.1839L55.0837 23.009ZM50 66.9994V62.9994H88V66.9994H50Z" fill="black"/>
<path d="M65.0005 106C65.0005 107.105 64.1051 108 63.0005 108C61.8959 108 61.0005 107.105 61.0005 106C61.0005 104.895 61.8959 104 63.0005 104C64.1051 104 65.0005 104.895 65.0005 106Z" fill="black"/>
<path d="M56 74.9995C56 76.104 55.1046 76.9995 54 76.9995C52.8954 76.9995 52 76.1041 52 74.9995C52 73.8949 52.8954 72.9995 54 72.9995C55.1046 72.9995 56 73.8949 56 74.9995Z" fill="black"/>
<path d="M56 84C56 85.1045 55.1046 86 54 86C52.8954 86 52 85.1046 52 84C52 82.8954 52.8954 82 54 82C55.1046 82 56 82.8954 56 84Z" fill="black"/>
<path d="M56 93.0005C56 94.105 55.1046 95.0005 54 95.0005C52.8954 95.0005 52 94.1051 52 93.0005C52 91.8959 52.8954 91.0005 54 91.0005C55.1046 91.0005 56 91.8959 56 93.0005Z" fill="black"/>
<path d="M65.0005 112C65.0005 113.105 64.1051 114 63.0005 114C61.8959 114 61.0005 113.105 61.0005 112C61.0005 110.895 61.8959 110 63.0005 110C64.1051 110 65.0005 110.895 65.0005 112Z" fill="black"/>
<path d="M30.8001 61.5115C32.633 59.9731 33.6639 58.3327 33.0705 56.8798C32.6946 55.9589 31.535 54.9431 28.2696 55.1744C26.7658 53.7178 24.7217 52.8165 22.4679 52.8165C17.9704 52.8165 14.302 56.3936 14.1337 60.8507C11.4208 63.0644 11.2959 64.6603 11.6863 65.6144C12.0225 66.4377 12.9787 67.3644 15.5771 67.3644C15.8555 67.3644 16.1521 67.3535 16.4688 67.331C16.5767 67.3235 16.6992 67.299 16.8092 67.2885C18.2988 68.6665 20.2838 69.5165 22.4684 69.5165C26.9555 69.5169 30.6176 65.9548 30.8001 61.5115ZM31.2188 57.636C31.3147 57.871 31.0888 58.3652 30.5234 59.0044C30.3493 58.3565 30.1068 57.7364 29.7905 57.1606C30.7163 57.239 31.1542 57.4786 31.2188 57.636ZM22.4676 54.8164C25.7588 54.8164 28.4726 57.3347 28.7859 60.546C27.505 61.4948 25.7046 62.5464 23.3092 63.5252C21.2842 64.3519 19.2954 64.9148 17.5538 65.1819C16.6575 64.0868 16.1179 62.689 16.1179 61.1668C16.1175 57.6652 18.9663 54.8164 22.4676 54.8164ZM13.5375 64.8586C13.4655 64.6815 13.643 64.129 14.4075 63.3123C14.6005 64.0356 14.8859 64.7202 15.2546 65.3532C14.038 65.3044 13.593 64.994 13.5375 64.8586ZM22.4676 67.5169C21.4284 67.5169 20.4497 67.2611 19.583 66.8169C21.0188 66.4777 22.5351 66.0023 24.0647 65.3773C25.6097 64.7465 27.1388 63.9832 28.4959 63.149C27.6614 65.6814 25.2763 67.5169 22.4676 67.5169Z" fill="black"/>
<path d="M24.7903 20.3467C25.8345 20.9517 26.7053 21.8225 27.3103 22.8667C27.7333 23.5958 28.7416 23.5958 29.1641 22.8667C29.7695 21.8225 30.6404 20.9517 31.6841 20.3467C32.4133 19.9237 32.4133 18.9154 31.6841 18.4929C30.6399 17.8879 29.7691 17.0171 29.1641 15.9729C28.7412 15.2437 27.7329 15.2437 27.3103 15.9729C26.7053 17.0171 25.8345 17.8879 24.7903 18.4929C24.0608 18.9154 24.0608 19.9237 24.7903 20.3467Z" fill="black"/>
<path d="M111.765 60.1717C110.721 59.5663 109.85 58.6955 109.245 57.6517C108.822 56.9226 107.814 56.9226 107.392 57.6517C106.787 58.6959 105.916 59.5667 104.872 60.1717C104.142 60.5946 104.142 61.603 104.872 62.0255C105.916 62.6309 106.787 63.5018 107.392 64.5455C107.814 65.2747 108.823 65.2747 109.245 64.5455C109.851 63.5017 110.722 62.6305 111.765 62.0255C112.495 61.6026 112.495 60.5942 111.765 60.1717Z" fill="black"/>
<path d="M76.9162 72H62.0842C60.9334 72 60.0005 72.9329 60.0005 74.0837V82.9163C60.0005 84.0671 60.9334 85 62.0842 85H76.9162C78.0671 85 79 84.0671 79 82.9163V74.0837C79 72.9329 78.067 72 76.9162 72ZM77 82.9163C77 82.9625 76.9625 83 76.9162 83H62.0842C62.038 83 62.0005 82.9625 62.0005 82.9163V74.0837C62.0005 74.0375 62.038 74 62.0842 74H76.9162C76.9625 74 77 74.0375 77 74.0837V82.9163Z" fill="black"/>
<path d="M57.2044 51.0634C57.5819 51.1238 57.9611 51.1672 58.339 51.2218C59.0411 51.3234 59.7432 51.4238 60.4474 51.5055C60.4528 51.5059 60.4578 51.5072 60.4632 51.5076C60.4628 51.5076 60.4624 51.5072 60.4624 51.5068C55.9861 48.6676 53.0007 43.6814 53.0007 37.9996C53.0007 36.4154 53.2403 34.887 53.6711 33.4408C61.0661 33.2179 65.4215 30.5488 67.9378 27.8629C70.2632 29.4413 74.7724 31.1021 83.4397 31.1512C84.4301 33.2308 85.0014 35.5471 85.0014 37.9996C85.0014 43.6783 82.0189 48.6625 77.5468 51.5025C78.2522 51.4212 78.9559 51.3258 79.6593 51.2242C80.1926 51.1471 80.7268 51.0796 81.2589 50.9908C81.3385 50.9775 81.4147 50.9554 81.4943 50.9408C84.8843 47.6674 87.0014 43.0842 87.0014 37.999C87.0014 32.7273 84.7159 28.0053 81.1043 24.7136C81.0572 24.6707 81.016 24.622 80.9685 24.5795C80.2789 24.4453 79.5889 24.3132 78.8964 24.2028C78.3897 24.122 77.8805 24.0611 77.3726 23.9928C77.0868 23.9545 76.8006 23.9157 76.5143 23.8811C74.6098 23.6516 72.6985 23.5124 70.7843 23.4578C69.5005 23.4215 68.2164 23.4199 66.9327 23.4624C65.1114 23.5224 63.2935 23.6661 61.481 23.8849C61.3769 23.8974 61.2727 23.9099 61.1685 23.9232C60.4752 24.0103 59.7827 24.1036 59.0918 24.214C58.4081 24.3232 57.7252 24.4386 57.0444 24.5707C56.9902 24.619 56.9431 24.6745 56.8898 24.7236C53.2832 28.0148 51.0015 32.7324 51.0015 37.9994C51.0015 43.091 53.1243 47.6794 56.5227 50.954L57.2044 51.0634Z" fill="black"/>
</g>
<defs>
<clipPath id="clip0_2266_408">
<rect width="128" height="128" fill="white"/>
</clipPath>
</defs>
</svg>
