<svg width="24" height="24" viewBox="0 0 24 24" fill="none" xmlns="http://www.w3.org/2000/svg">
<path d="M15 22V18C15.1391 16.7473 14.7799 15.4901 14 14.5C17 14.5 20 12.5 20 9C20.08 7.75 19.73 6.52 19 5.5C19.28 4.35 19.28 3.15 19 2C19 2 18 2 16 3.5C13.36 3 10.64 3 8 3.5C6 2 5 2 5 2C4.7 3.15 4.7 4.35 5 5.5C4.27187 6.51588 3.91847 7.75279 4 9C4 12.5 7 14.5 10 14.5C9.61 14.99 9.32 15.55 9.15 16.15C8.98 16.75 8.93 17.38 9 18M9 18V22M9 18C4.49 20 4 16 2 16" stroke="url(#paint0_linear_2110_2236)" stroke-width="2" stroke-linecap="round" stroke-linejoin="round"/>
<defs>
<linearGradient id="paint0_linear_2110_2236" x1="6" y1="3" x2="18.5" y2="29.5" gradientUnits="userSpaceOnUse">
<stop stop-color="#FF5E5E"/>
<stop offset="0.15" stop-color="#FFA95E"/>
<stop offset="0.306332" stop-color="#F4FF5E"/>
<stop offset="0.45" stop-color="#5EFF8E"/>
<stop offset="0.6" stop-color="#5EA4FF"/>
<stop offset="0.75" stop-color="#635EFF"/>
<stop offset="0.91" stop-color="#865EFF"/>
</linearGradient>
</defs>
</svg>
